<?xml version="1.0" standalone="no"?>
<!DOCTYPE svg PUBLIC "-//W3C//DTD SVG 20010904//EN"
 "http://www.w3.org/TR/2001/REC-SVG-20010904/DTD/svg10.dtd">
<svg version="1.0" xmlns="http://www.w3.org/2000/svg"
 width="2500.000000pt" height="2500.000000pt" viewBox="0 0 2500.000000 2500.000000"
 preserveAspectRatio="xMidYMid meet">

<g transform="translate(0.000000,2500.000000) scale(0.100000,-0.100000)"
fill="#000000" stroke="none">
<path d="M12013 24773 c9 -2 23 -2 30 0 6 3 -1 5 -18 5 -16 0 -22 -2 -12 -5z"/>
<path d="M13703 24773 c9 -2 23 -2 30 0 6 3 -1 5 -18 5 -16 0 -22 -2 -12 -5z"/>
<path d="M11883 24763 c9 -2 23 -2 30 0 6 3 -1 5 -18 5 -16 0 -22 -2 -12 -5z"/>
<path d="M13808 24763 c6 -2 18 -2 25 0 6 3 1 5 -13 5 -14 0 -19 -2 -12 -5z"/>
<path d="M11778 24753 c6 -2 18 -2 25 0 6 3 1 5 -13 5 -14 0 -19 -2 -12 -5z"/>
<path d="M13918 24753 c6 -2 18 -2 25 0 6 3 1 5 -13 5 -14 0 -19 -2 -12 -5z"/>
<path d="M11688 24743 c7 -3 16 -2 19 1 4 3 -2 6 -13 5 -11 0 -14 -3 -6 -6z"/>
<path d="M14018 24743 c7 -3 16 -2 19 1 4 3 -2 6 -13 5 -11 0 -14 -3 -6 -6z"/>
<path d="M11598 24733 c7 -3 16 -2 19 1 4 3 -2 6 -13 5 -11 0 -14 -3 -6 -6z"/>
<path d="M14108 24733 c7 -3 16 -2 19 1 4 3 -2 6 -13 5 -11 0 -14 -3 -6 -6z"/>
<path d="M11508 24723 c7 -3 16 -2 19 1 4 3 -2 6 -13 5 -11 0 -14 -3 -6 -6z"/>
<path d="M14198 24723 c7 -3 16 -2 19 1 4 3 -2 6 -13 5 -11 0 -14 -3 -6 -6z"/>
<path d="M11428 24713 c6 -2 18 -2 25 0 6 3 1 5 -13 5 -14 0 -19 -2 -12 -5z"/>
<path d="M11358 24703 c7 -3 16 -2 19 1 4 3 -2 6 -13 5 -11 0 -14 -3 -6 -6z"/>
<path d="M11288 24693 c7 -3 16 -2 19 1 4 3 -2 6 -13 5 -11 0 -14 -3 -6 -6z"/>
<path d="M11148 24673 c7 -3 16 -2 19 1 4 3 -2 6 -13 5 -11 0 -14 -3 -6 -6z"/>
<path d="M14568 24673 c7 -3 16 -2 19 1 4 3 -2 6 -13 5 -11 0 -14 -3 -6 -6z"/>
<path d="M14698 24653 c7 -3 16 -2 19 1 4 3 -2 6 -13 5 -11 0 -14 -3 -6 -6z"/>
<path d="M14758 24643 c7 -3 16 -2 19 1 4 3 -2 6 -13 5 -11 0 -14 -3 -6 -6z"/>
<path d="M14818 24633 c7 -3 16 -2 19 1 4 3 -2 6 -13 5 -11 0 -14 -3 -6 -6z"/>
<path d="M14878 24623 c7 -3 16 -2 19 1 4 3 -2 6 -13 5 -11 0 -14 -3 -6 -6z"/>
<path d="M14988 24603 c7 -3 16 -2 19 1 4 3 -2 6 -13 5 -11 0 -14 -3 -6 -6z"/>
<path d="M15038 24593 c7 -3 16 -2 19 1 4 3 -2 6 -13 5 -11 0 -14 -3 -6 -6z"/>
<path d="M15088 24583 c7 -3 16 -2 19 1 4 3 -2 6 -13 5 -11 0 -14 -3 -6 -6z"/>
<path d="M15138 24573 c7 -3 16 -2 19 1 4 3 -2 6 -13 5 -11 0 -14 -3 -6 -6z"/>
<path d="M15188 24563 c7 -3 16 -2 19 1 4 3 -2 6 -13 5 -11 0 -14 -3 -6 -6z"/>
<path d="M15228 24553 c6 -2 18 -2 25 0 6 3 1 5 -13 5 -14 0 -19 -2 -12 -5z"/>
<path d="M15278 24543 c7 -3 16 -2 19 1 4 3 -2 6 -13 5 -11 0 -14 -3 -6 -6z"/>
<path d="M15328 24533 c7 -3 16 -2 19 1 4 3 -2 6 -13 5 -11 0 -14 -3 -6 -6z"/>
<path d="M15368 24523 c6 -2 18 -2 25 0 6 3 1 5 -13 5 -14 0 -19 -2 -12 -5z"/>
<path d="M15418 24513 c7 -3 16 -2 19 1 4 3 -2 6 -13 5 -11 0 -14 -3 -6 -6z"/>
<path d="M15595 24470 c82 -21 151 -37 153 -35 4 4 -14 9 -175 49 -56 15 -108
26 -115 25 -7 0 54 -18 137 -39z"/>
<path d="M15767 24429 c7 -7 15 -10 18 -7 3 3 -2 9 -12 12 -14 6 -15 5 -6 -5z"/>
<path d="M15800 24420 c0 -6 7 -10 15 -10 8 0 15 2 15 4 0 2 -7 6 -15 10 -8 3
-15 1 -15 -4z"/>
<path d="M15840 24410 c0 -6 7 -10 15 -10 8 0 15 2 15 4 0 2 -7 6 -15 10 -8 3
-15 1 -15 -4z"/>
<path d="M15888 24393 c7 -3 16 -2 19 1 4 3 -2 6 -13 5 -11 0 -14 -3 -6 -6z"/>
<path d="M15920 24390 c0 -5 5 -10 11 -10 5 0 7 5 4 10 -3 6 -8 10 -11 10 -2
0 -4 -4 -4 -10z"/>
<path d="M15955 24380 c-6 -9 -1 -11 38 -14 6 -1 14 -4 17 -7 3 -3 19 -9 35
-12 29 -6 29 -6 -5 10 -19 9 -39 16 -44 14 -4 -1 -14 3 -21 9 -9 8 -15 8 -20
0z"/>
<path d="M16126 24331 c-3 -5 4 -11 16 -14 29 -8 32 -4 8 11 -10 6 -21 8 -24
3z"/>
<path d="M16260 24288 c-13 -8 -12 -9 2 -5 9 3 18 2 20 -2 2 -4 75 -32 163
-61 472 -156 913 -341 1425 -597 709 -354 1303 -729 1935 -1223 406 -317 636
-519 985 -869 386 -387 586 -615 1063 -1213 131 -164 256 -317 277 -340 22
-24 40 -46 40 -50 0 -5 5 -8 11 -8 9 0 239 -207 282 -254 58 -64 120 -127 122
-124 6 6 -97 141 -260 339 -266 325 -308 374 -317 371 -4 -1 -7 1 -6 5 4 15
-23 54 -33 48 -5 -4 -8 -3 -7 2 4 14 -23 54 -33 48 -5 -4 -8 -3 -7 2 5 16 -23
54 -35 47 -7 -4 -9 -4 -5 1 7 7 -9 33 -53 85 -11 14 -17 19 -13 11 5 -9 3 -12
-4 -7 -7 4 -12 13 -12 20 0 7 -7 21 -16 32 -8 10 -12 13 -8 5 5 -9 3 -12 -4
-7 -7 4 -12 13 -12 20 0 8 -11 21 -25 30 -14 9 -24 20 -21 24 2 4 -5 19 -16
32 -11 14 -16 19 -12 11 5 -9 3 -12 -4 -7 -7 4 -12 14 -12 21 0 8 -9 19 -20
25 -11 6 -17 16 -14 22 4 7 3 8 -5 4 -6 -4 -14 0 -18 11 -4 10 -17 26 -30 36
-13 10 -23 24 -23 31 0 7 -13 22 -30 34 -16 13 -30 28 -30 35 0 7 -13 23 -30
35 -16 13 -30 28 -30 35 0 7 -16 25 -35 40 -19 15 -35 33 -35 39 0 6 -19 30
-42 53 -24 24 -65 65 -91 92 -27 27 -46 51 -43 54 3 3 -9 19 -27 35 l-32 29
30 -35 30 -35 -32 29 c-18 17 -33 35 -33 40 0 18 -425 438 -434 429 -4 -4 -6
-1 -4 7 2 8 -3 14 -9 13 -7 -2 -12 1 -10 6 4 16 -360 339 -623 553 -217 176
-588 449 -603 445 -5 -1 -13 6 -18 16 -6 9 -14 15 -19 12 -4 -3 -11 2 -14 11
-3 8 -10 13 -15 10 -5 -3 -12 1 -15 10 -3 8 -10 13 -15 9 -6 -3 -15 4 -21 15
-6 11 -15 18 -19 15 -5 -3 -12 2 -15 11 -3 8 -10 13 -15 10 -5 -3 -12 1 -15
10 -3 8 -10 13 -15 10 -5 -3 -12 1 -15 10 -4 9 -9 14 -13 11 -3 -4 -12 1 -20
11 -10 11 -12 12 -8 2 4 -10 2 -9 -8 3 -8 9 -19 17 -26 17 -6 0 -11 5 -11 11
0 5 -5 7 -10 4 -6 -3 -13 1 -16 9 -3 9 -10 13 -15 10 -5 -3 -12 2 -15 10 -3 9
-10 13 -15 10 -5 -3 -12 2 -15 10 -3 9 -9 14 -14 11 -4 -2 -16 4 -27 15 -12
10 -23 16 -27 13 -3 -3 -8 2 -12 11 -3 9 -10 13 -15 10 -5 -3 -12 2 -15 10 -3
9 -9 14 -14 11 -4 -2 -18 6 -31 18 -13 12 -26 21 -29 19 -3 -1 -14 6 -25 15
-11 9 -21 15 -22 13 -1 -3 -13 4 -25 15 -13 10 -24 18 -26 17 -1 -1 -44 22
-95 52 -294 173 -779 424 -1092 565 -155 70 -454 191 -672 274 -79 30 -140 58
-135 62 4 5 2 5 -4 2 -12 -7 -477 145 -498 162 -8 7 -17 6 -26 -1z"/>
<path d="M13305 23704 c-987 -42 -1873 -232 -2755 -589 -780 -315 -1458 -724
-2125 -1281 -239 -199 -697 -654 -902 -895 -625 -733 -1149 -1648 -1460 -2544
-243 -701 -373 -1328 -435 -2090 -17 -212 -17 -920 0 -1130 40 -490 107 -917
213 -1355 46 -194 67 -260 80 -260 10 0 8 25 -5 78 -3 12 -8 31 -11 42 -3 11
-7 29 -10 40 -10 41 -16 66 -20 85 -3 11 -7 31 -10 45 -4 14 -8 34 -10 45 -5
20 -10 42 -20 88 -3 12 -7 33 -10 47 -3 14 -7 36 -10 50 -9 41 -13 67 -44 256
-36 216 -75 563 -92 799 -19 272 -15 981 6 1155 1 14 6 65 10 113 3 48 8 96
10 105 1 9 6 46 10 82 3 36 8 76 10 90 2 14 6 48 9 75 3 28 8 59 10 70 2 11
11 70 21 130 26 176 31 202 39 240 3 11 19 83 36 161 133 614 329 1202 565
1704 127 270 158 329 168 323 6 -3 7 -2 4 4 -8 13 67 155 77 146 4 -5 7 -1 5
7 -3 21 11 51 22 44 5 -3 6 3 2 12 -4 11 -3 15 5 10 7 -4 15 8 22 34 6 22 15
38 20 35 6 -4 7 1 3 11 -4 11 -2 15 4 11 6 -4 13 6 17 24 3 17 10 28 15 25 5
-3 11 8 15 25 3 17 10 28 15 25 5 -3 11 8 15 25 3 17 10 28 16 24 5 -3 10 3
10 15 0 12 5 18 10 15 6 -4 13 7 16 24 4 17 10 28 15 25 5 -3 12 8 15 25 4 17
10 28 15 25 5 -3 9 5 9 17 0 12 3 19 7 16 9 -10 43 44 36 57 -3 6 -3 8 2 4 7
-7 95 111 95 127 0 3 11 18 25 33 14 15 25 30 25 34 0 4 7 16 15 25 8 10 15
21 16 25 0 4 13 21 30 39 16 17 27 34 25 37 -3 2 5 13 17 23 12 10 18 18 13
19 -4 0 2 9 15 20 13 10 20 19 15 20 -4 0 2 9 15 21 13 11 17 17 9 14 -8 -4
-1 5 15 20 17 14 23 23 15 20 -8 -4 -3 4 12 17 15 14 25 28 22 31 -3 3 4 10
15 17 12 6 19 15 16 20 -3 4 6 17 20 28 13 11 22 22 19 25 -3 2 6 14 20 25 14
10 23 22 20 25 -3 2 12 19 33 37 21 18 31 29 23 26 -8 -4 3 9 25 30 22 20 33
34 25 30 -8 -4 5 12 30 35 25 23 38 39 30 35 -8 -4 5 12 30 35 25 23 38 39 30
35 -8 -4 17 23 55 60 39 38 59 60 45 50 -14 -11 99 104 250 255 169 168 345
332 455 424 210 176 301 247 310 245 3 0 15 9 25 22 11 13 19 19 20 14 0 -4 9
2 20 15 10 13 19 20 20 15 0 -4 9 2 20 15 10 13 19 20 20 14 0 -5 7 1 16 13 8
12 19 20 24 17 4 -3 11 2 14 11 4 9 9 14 13 10 3 -3 13 3 20 14 8 11 18 18 23
15 4 -3 11 2 14 11 4 9 9 14 13 10 3 -3 13 3 20 14 8 11 18 18 23 15 4 -3 11
2 14 11 3 8 10 13 15 10 5 -3 12 1 15 10 3 8 10 13 15 10 5 -3 12 1 15 10 3 8
10 13 15 10 5 -3 12 1 15 10 3 8 10 12 16 9 6 -3 13 1 16 9 3 9 10 13 15 10 5
-3 12 2 15 10 3 9 10 13 15 10 5 -3 12 2 15 10 3 9 10 13 15 10 5 -3 12 2 15
10 3 9 10 14 14 11 4 -3 11 2 14 11 3 8 10 12 16 9 5 -3 10 -1 10 5 0 6 5 8
10 5 6 -3 13 1 16 9 3 9 10 13 15 10 5 -3 9 0 9 6 0 6 4 9 9 5 6 -3 14 3 20
12 6 10 11 15 11 11 0 -4 57 27 128 69 277 164 637 346 932 470 85 36 159 69
164 74 6 5 18 9 29 9 10 0 15 5 12 10 -4 6 7 10 25 10 18 0 29 4 25 10 -5 9
32 16 58 11 5 -1 5 4 1 10 -5 9 -2 10 10 6 9 -4 15 -3 12 2 -3 5 18 15 47 22
28 6 61 18 72 24 34 22 315 106 327 99 6 -4 8 -3 5 3 -7 11 80 36 95 27 6 -4
8 -2 5 3 -8 12 50 26 66 16 5 -3 7 -1 4 4 -8 12 50 26 66 16 5 -3 7 -2 4 3 -7
13 298 88 314 78 7 -4 9 -3 6 3 -7 11 336 81 578 118 598 92 1120 111 1875 71
l85 -5 -70 9 c-197 25 -798 44 -1040 34z"/>
<path d="M14438 23653 c12 -2 30 -2 40 0 9 3 -1 5 -23 4 -22 0 -30 -2 -17 -4z"/>
<path d="M14533 23643 c9 -2 25 -2 35 0 9 3 1 5 -18 5 -19 0 -27 -2 -17 -5z"/>
<path d="M14613 23633 c9 -2 25 -2 35 0 9 3 1 5 -18 5 -19 0 -27 -2 -17 -5z"/>
<path d="M14698 23623 c6 -2 18 -2 25 0 6 3 1 5 -13 5 -14 0 -19 -2 -12 -5z"/>
<path d="M14768 23613 c6 -2 18 -2 25 0 6 3 1 5 -13 5 -14 0 -19 -2 -12 -5z"/>
<path d="M14838 23603 c7 -3 16 -2 19 1 4 3 -2 6 -13 5 -11 0 -14 -3 -6 -6z"/>
<path d="M14898 23593 c7 -3 16 -2 19 1 4 3 -2 6 -13 5 -11 0 -14 -3 -6 -6z"/>
<path d="M14958 23583 c7 -3 16 -2 19 1 4 3 -2 6 -13 5 -11 0 -14 -3 -6 -6z"/>
<path d="M15018 23573 c7 -3 16 -2 19 1 4 3 -2 6 -13 5 -11 0 -14 -3 -6 -6z"/>
<path d="M15078 23563 c7 -3 16 -2 19 1 4 3 -2 6 -13 5 -11 0 -14 -3 -6 -6z"/>
<path d="M11768 22215 c-74 -23 -124 -44 -102 -45 13 0 185 58 192 65 8 8 -8
4 -90 -20z"/>
<path d="M17418 22013 c7 -3 16 -2 19 1 4 3 -2 6 -13 5 -11 0 -14 -3 -6 -6z"/>
<path d="M17600 21956 c0 -2 28 -14 62 -25 34 -12 58 -17 53 -12 -6 4 -32 16
-59 25 -54 17 -56 18 -56 12z"/>
<path d="M17730 21912 c0 -5 17 -14 38 -21 20 -7 44 -15 52 -18 10 -4 12 -2 5
4 -15 15 -95 44 -95 35z"/>
<path d="M17840 21871 c0 -4 16 -13 37 -19 40 -12 34 -3 -9 16 -16 6 -28 8
-28 3z"/>
<path d="M17920 21842 c0 -6 9 -12 20 -15 11 -3 20 -3 20 -1 0 2 -9 8 -20 14
-11 6 -20 7 -20 2z"/>
<path d="M17970 21820 c0 -5 5 -10 11 -10 5 0 7 5 4 10 -3 6 -8 10 -11 10 -2
0 -4 -4 -4 -10z"/>
<path d="M18000 21811 c0 -9 30 -24 36 -18 2 1 -6 8 -16 15 -11 7 -20 8 -20 3z"/>
<path d="M18050 21791 c0 -9 30 -24 36 -18 2 1 -6 8 -16 15 -11 7 -20 8 -20 3z"/>
<path d="M18130 21750 c18 -12 30 -13 30 -2 0 4 -10 9 -22 9 -18 2 -20 0 -8
-7z"/>
<path d="M5014 21718 l-19 -23 23 19 c21 18 27 26 19 26 -2 0 -12 -10 -23 -22z"/>
<path d="M18180 21730 c18 -12 30 -13 30 -2 0 4 -10 9 -22 9 -18 2 -20 0 -8
-7z"/>
<path d="M18246 21711 c-3 -5 3 -11 15 -14 16 -4 18 -3 8 9 -13 16 -16 17 -23
5z"/>
<path d="M18310 21680 c0 -5 5 -10 11 -10 5 0 7 5 4 10 -3 6 -8 10 -11 10 -2
0 -4 -4 -4 -10z"/>
<path d="M18390 21640 c8 -5 20 -10 25 -10 6 0 3 5 -5 10 -8 5 -19 10 -25 10
-5 0 -3 -5 5 -10z"/>
<path d="M4894 21608 l-29 -33 33 29 c30 28 37 36 29 36 -2 0 -16 -15 -33 -32z"/>
<path d="M18480 21600 c19 -11 40 -19 45 -19 6 0 -6 8 -25 19 -19 11 -39 19
-45 19 -5 0 6 -8 25 -19z"/>
<path d="M18835 21427 c344 -175 349 -178 630 -345 762 -455 1408 -962 2051
-1613 644 -653 1245 -1466 1689 -2284 104 -193 314 -618 380 -770 150 -346
401 -1023 528 -1425 269 -847 429 -1669 502 -2575 9 -104 20 -350 25 -545 26
-1038 -75 -1999 -316 -2990 -326 -1340 -939 -2678 -1752 -3820 -619 -870
-1262 -1557 -2037 -2179 -670 -537 -1308 -950 -2035 -1316 -402 -202 -637
-306 -1102 -486 -793 -308 -1911 -583 -2833 -698 -418 -52 -902 -91 -1165 -93
-79 -1 -94 -3 -60 -8 25 -4 38 -8 30 -9 -8 -1 -28 -4 -45 -6 -16 -2 -41 -7
-55 -11 -14 -3 -40 -8 -58 -10 -18 -2 -142 -22 -275 -44 -133 -21 -297 -44
-364 -52 -85 -8 -118 -15 -107 -21 21 -12 1019 -15 1239 -4 152 7 203 10 355
22 92 7 267 23 325 30 17 2 59 6 95 10 383 36 1114 163 1445 251 11 3 30 7 42
9 12 2 28 7 35 11 7 4 24 9 38 10 14 1 50 10 80 19 54 16 71 20 110 30 11 3
29 7 40 10 11 3 29 7 40 10 11 3 29 7 40 10 11 3 30 8 43 11 12 3 31 7 43 8
11 1 25 6 32 10 16 10 150 47 159 44 5 -1 18 3 31 10 12 7 28 12 35 11 6 -1
29 6 51 15 21 10 45 15 53 12 8 -3 12 -2 9 3 -7 11 52 23 68 14 6 -3 8 -3 4 2
-4 4 104 45 240 90 360 120 729 264 1064 414 165 74 590 284 745 369 51 27 94
47 97 44 4 -3 6 -1 6 5 0 10 49 38 63 35 4 -1 7 2 7 7 0 5 16 15 35 22 19 7
35 17 35 22 0 4 5 5 10 2 6 -3 10 -1 10 4 0 6 7 11 15 11 8 0 15 5 15 11 0 5
5 7 10 4 6 -3 10 -1 10 4 0 6 7 11 15 11 8 0 15 5 15 11 0 5 5 7 10 4 6 -3 10
-1 10 5 0 6 4 9 9 6 5 -3 14 1 21 9 7 8 16 15 21 15 10 0 255 147 271 164 7 6
20 15 29 18 8 3 114 72 235 154 466 313 948 698 1356 1081 117 110 466 458
578 578 370 393 783 911 1087 1365 104 156 279 435 314 500 13 25 27 47 32 48
4 2 5 8 1 13 -3 5 0 9 6 9 6 0 8 5 5 10 -3 6 -1 10 4 10 6 0 11 7 11 15 0 8 5
15 11 15 5 0 7 5 4 10 -3 6 -2 10 3 10 6 0 13 11 16 25 4 14 11 25 17 25 6 0
7 5 4 10 -3 6 -1 10 4 10 6 0 11 6 11 14 0 8 7 22 16 30 8 9 12 16 7 16 -4 0
-3 4 2 8 6 4 19 26 29 50 11 23 24 42 29 42 6 0 8 3 5 6 -3 3 14 41 38 85 81
146 290 571 369 749 81 183 225 537 266 652 13 36 28 64 33 61 5 -3 6 -2 3 4
-8 12 56 207 65 198 3 -4 5 0 5 7 -3 23 35 148 43 143 5 -3 6 5 2 17 -3 13 -1
19 5 15 7 -5 9 1 5 15 -3 13 -1 19 5 15 7 -5 9 1 5 15 -3 13 -1 19 5 15 7 -5
9 1 5 15 -3 13 -1 19 5 15 7 -5 9 1 5 15 -3 13 -1 19 5 15 7 -5 9 1 5 15 -3
13 -1 19 5 15 7 -5 9 1 5 15 -4 16 -2 19 8 13 8 -5 11 -4 7 2 -9 15 3 74 14
67 5 -3 6 2 3 10 -3 8 0 25 7 38 7 13 12 29 11 35 -2 7 3 23 10 35 6 13 12 30
13 38 2 35 18 89 25 85 4 -2 5 7 2 22 -4 19 -2 24 8 18 8 -5 11 -4 6 3 -4 6 3
46 14 89 11 43 23 86 25 95 3 10 7 27 10 38 3 11 7 28 10 38 2 9 9 37 16 62 6
25 13 52 16 60 4 8 5 19 4 24 -1 4 4 15 11 24 11 13 11 14 0 8 -12 -7 -12 -4
-1 15 7 13 12 28 11 32 -1 4 3 17 9 29 8 16 8 19 -1 13 -9 -6 -9 -2 0 15 7 12
13 32 15 44 2 11 6 30 9 41 85 333 194 1124 221 1610 4 61 8 137 11 170 2 33
7 207 10 387 11 614 -28 1229 -116 1823 -16 110 -31 211 -34 225 -3 13 -8 40
-11 60 -3 20 -7 45 -9 57 -3 11 -7 36 -10 54 -3 19 -8 45 -11 59 -3 14 -7 36
-10 50 -3 14 -7 36 -10 50 -3 14 -7 36 -10 50 -3 14 -7 35 -10 48 -3 12 -7 31
-9 41 -3 11 -10 30 -16 42 -9 16 -9 20 0 14 7 -4 4 7 -5 25 -9 18 -11 29 -5
25 6 -4 4 7 -5 25 -9 18 -12 29 -5 25 9 -6 9 -2 1 14 -7 11 -9 21 -6 21 3 0 0
10 -6 23 -7 12 -13 33 -14 47 -1 14 -5 31 -9 38 -4 7 -5 16 -1 21 3 5 0 13 -6
16 -5 4 -8 13 -5 21 3 7 1 16 -5 20 -6 3 -8 12 -5 20 3 7 1 16 -5 20 -6 3 -8
12 -5 20 3 7 1 16 -5 20 -6 3 -8 12 -5 20 3 7 1 16 -5 19 -5 4 -8 12 -7 18 1
7 -3 21 -9 32 -6 11 -9 28 -8 38 2 10 -1 14 -7 11 -7 -5 -9 2 -6 19 3 16 1 24
-5 20 -6 -4 -8 4 -5 20 3 16 1 24 -5 20 -6 -4 -8 4 -5 21 3 14 1 29 -4 32 -4
3 -5 10 -2 16 5 7 2 8 -6 3 -10 -6 -12 -1 -8 18 3 16 1 24 -5 20 -6 -4 -8 2
-5 15 4 12 2 25 -3 28 -5 3 -6 10 -3 16 5 7 2 8 -6 3 -10 -6 -12 -1 -8 19 3
14 1 29 -4 32 -4 3 -5 10 -2 16 5 7 2 8 -6 3 -10 -6 -12 -1 -8 19 3 14 1 29
-4 32 -4 3 -5 10 -2 16 5 7 2 8 -6 3 -10 -6 -12 -3 -8 13 4 14 2 20 -5 15 -6
-4 -8 2 -5 15 4 14 2 20 -5 15 -6 -4 -8 2 -5 15 4 14 2 20 -5 15 -6 -4 -8 2
-4 16 3 13 3 21 0 17 -8 -8 -134 375 -126 387 4 6 1 7 -7 2 -10 -6 -12 -3 -8
13 4 12 3 20 -1 17 -10 -6 -32 65 -24 78 3 6 2 8 -3 4 -5 -3 -29 52 -53 121
-59 172 -244 642 -331 843 -268 618 -648 1284 -1047 1838 -57 78 -110 150
-118 158 -8 8 -15 18 -15 21 0 4 -10 18 -23 32 -12 14 -36 43 -52 65 -97 132
-546 662 -576 680 -5 4 -6 12 -3 18 4 7 4 10 1 6 -4 -3 -136 124 -294 281
-158 158 -328 322 -377 366 -49 43 -96 86 -105 95 -9 9 -68 60 -131 113 -63
54 -124 106 -135 115 -52 45 -276 220 -419 326 -312 233 -746 509 -1129 720
-148 80 -748 375 -764 375 -4 0 127 -69 292 -153z"/>
<path d="M4590 21313 l-185 -188 188 185 c174 172 192 190 184 190 -1 0 -85
-84 -187 -187z"/>
<path d="M10009 21313 c-13 -16 -12 -17 4 -4 9 7 17 15 17 17 0 8 -8 3 -21
-13z"/>
<path d="M9939 21253 l-24 -28 28 24 c15 14 27 26 27 28 0 8 -8 1 -31 -24z"/>
<path d="M9750 21073 l-85 -88 88 85 c81 79 92 90 84 90 -1 0 -41 -39 -87 -87z"/>
<path d="M4305 21018 l-40 -43 43 40 c39 36 47 45 39 45 -2 0 -21 -19 -42 -42z"/>
<path d="M4189 20893 l-24 -28 28 24 c15 14 27 26 27 28 0 8 -8 1 -31 -24z"/>
<path d="M9579 20893 l-24 -28 28 24 c15 14 27 26 27 28 0 8 -8 1 -31 -24z"/>
<path d="M9519 20823 c-13 -16 -12 -17 4 -4 9 7 17 15 17 17 0 8 -8 3 -21 -13z"/>
<path d="M21020 20836 c0 -2 8 -10 18 -17 15 -13 16 -12 3 4 -13 16 -21 21
-21 13z"/>
<path d="M4119 20813 c-13 -16 -12 -17 4 -4 9 7 17 15 17 17 0 8 -8 3 -21 -13z"/>
<path d="M21070 20796 c0 -2 8 -10 18 -17 15 -13 16 -12 3 4 -13 16 -21 21
-21 13z"/>
<path d="M9469 20763 c-13 -16 -12 -17 4 -4 9 7 17 15 17 17 0 8 -8 3 -21 -13z"/>
<path d="M4069 20753 c-13 -16 -12 -17 4 -4 9 7 17 15 17 17 0 8 -8 3 -21 -13z"/>
<path d="M21120 20756 c0 -2 8 -10 18 -17 15 -13 16 -12 3 4 -13 16 -21 21
-21 13z"/>
<path d="M21170 20716 c0 -2 8 -10 18 -17 15 -13 16 -12 3 4 -13 16 -21 21
-21 13z"/>
<path d="M4019 20693 c-13 -16 -12 -17 4 -4 9 7 17 15 17 17 0 8 -8 3 -21 -13z"/>
<path d="M3969 20633 c-13 -16 -12 -17 4 -4 9 7 17 15 17 17 0 8 -8 3 -21 -13z"/>
<path d="M21310 20606 c0 -2 8 -10 18 -17 15 -13 16 -12 3 4 -13 16 -21 21
-21 13z"/>
<path d="M3919 20573 c-13 -16 -12 -17 4 -4 9 7 17 15 17 17 0 8 -8 3 -21 -13z"/>
<path d="M21370 20556 c0 -2 8 -10 18 -17 15 -13 16 -12 3 4 -13 16 -21 21
-21 13z"/>
<path d="M3879 20523 c-13 -16 -12 -17 4 -4 9 7 17 15 17 17 0 8 -8 3 -21 -13z"/>
<path d="M21430 20506 c0 -2 8 -10 18 -17 15 -13 16 -12 3 4 -13 16 -21 21
-21 13z"/>
<path d="M3839 20473 c-13 -16 -12 -17 4 -4 9 7 17 15 17 17 0 8 -8 3 -21 -13z"/>
<path d="M21490 20456 c0 -2 8 -10 18 -17 15 -13 16 -12 3 4 -13 16 -21 21
-21 13z"/>
<path d="M3799 20423 c-13 -16 -12 -17 4 -4 16 13 21 21 13 21 -2 0 -10 -8
-17 -17z"/>
<path d="M21550 20406 c0 -2 8 -10 18 -17 15 -13 16 -12 3 4 -13 16 -21 21
-21 13z"/>
<path d="M21620 20346 c0 -2 8 -10 18 -17 15 -13 16 -12 3 4 -13 16 -21 21
-21 13z"/>
<path d="M21695 20280 c10 -11 20 -20 23 -20 3 0 -3 9 -13 20 -10 11 -20 20
-23 20 -3 0 3 -9 13 -20z"/>
<path d="M21775 20210 c10 -11 20 -20 23 -20 3 0 -3 9 -13 20 -10 11 -20 20
-23 20 -3 0 3 -9 13 -20z"/>
<path d="M21870 20125 c13 -14 26 -25 28 -25 3 0 -5 11 -18 25 -13 14 -26 25
-28 25 -3 0 5 -11 18 -25z"/>
<path d="M21995 20010 c10 -11 20 -20 23 -20 3 0 -3 9 -13 20 -10 11 -20 20
-23 20 -3 0 3 -9 13 -20z"/>
<path d="M22110 19906 c0 -2 8 -10 18 -17 15 -13 16 -12 3 4 -13 16 -21 21
-21 13z"/>
<path d="M22210 19816 c0 -2 8 -10 18 -17 15 -13 16 -12 3 4 -13 16 -21 21
-21 13z"/>
<path d="M22415 19600 c3 -5 8 -10 11 -10 2 0 4 5 4 10 0 6 -5 10 -11 10 -5 0
-7 -4 -4 -10z"/>
<path d="M8601 18764 c0 -11 3 -14 6 -6 3 7 2 16 -1 19 -3 4 -6 -2 -5 -13z"/>
<path d="M8591 18694 c0 -11 3 -14 6 -6 3 7 2 16 -1 19 -3 4 -6 -2 -5 -13z"/>
<path d="M8581 18604 c0 -11 3 -14 6 -6 3 7 2 16 -1 19 -3 4 -6 -2 -5 -13z"/>
<path d="M8572 18495 c0 -16 2 -22 5 -12 2 9 2 23 0 30 -3 6 -5 -1 -5 -18z"/>
<path d="M8564 18175 c0 -88 2 -123 3 -77 2 46 2 118 0 160 -1 42 -3 5 -3 -83z"/>
<path d="M8572 17850 c0 -14 2 -19 5 -12 2 6 2 18 0 25 -3 6 -5 1 -5 -13z"/>
<path d="M1610 17759 c0 -5 5 -7 10 -4 6 3 10 8 10 11 0 2 -4 4 -10 4 -5 0
-10 -5 -10 -11z"/>
<path d="M1572 17721 c1 -3 -4 -17 -10 -31 -35 -74 -232 -862 -297 -1185 -263
-1319 -342 -2681 -235 -4025 28 -347 32 -380 42 -380 5 0 7 3 5 8 -3 4 -8 48
-12 97 -4 50 -8 101 -10 115 -2 14 -7 75 -11 135 -3 61 -8 121 -9 135 -2 14
-6 95 -10 180 -4 85 -8 175 -10 200 -5 75 -5 1080 0 1155 2 39 7 131 10 205 3
74 8 160 10 190 2 30 7 93 10 140 6 91 32 378 40 445 2 22 7 60 9 85 57 522
189 1303 271 1610 14 52 27 105 29 118 8 56 80 321 86 317 4 -2 5 7 2 22 -3
16 -1 24 5 20 6 -4 8 4 5 20 -4 19 -2 24 8 18 8 -5 11 -4 7 2 -9 14 3 74 13
68 4 -2 5 7 2 22 -3 18 -1 24 6 19 8 -4 10 -2 6 7 -3 8 10 66 29 128 47 153
49 166 23 166 -8 0 -14 -3 -14 -6z"/>
<path d="M16741 17617 c-6 -8 -22 -76 -36 -153 -128 -695 -407 -1311 -841
-1854 -142 -178 -451 -486 -634 -632 -707 -563 -1557 -873 -2455 -895 -696
-17 -1329 124 -1949 434 -349 174 -641 375 -943 650 -137 124 -138 124 -28 18
258 -249 481 -424 754 -590 51 -30 98 -57 104 -58 6 -1 20 -10 31 -19 10 -10
23 -15 28 -12 4 3 8 0 8 -6 0 -6 5 -8 10 -5 6 3 10 1 10 -5 0 -6 5 -8 10 -5 6
3 10 1 10 -5 0 -6 5 -8 10 -5 6 3 10 1 10 -5 0 -6 5 -8 10 -5 6 3 10 1 10 -5
0 -6 5 -8 10 -5 6 3 10 1 10 -5 0 -6 5 -8 10 -5 6 3 10 1 10 -5 0 -6 5 -8 10
-5 6 3 10 1 10 -5 0 -6 5 -8 10 -5 6 3 10 1 10 -5 0 -6 5 -8 10 -5 6 3 10 1
10 -5 0 -6 5 -8 10 -5 6 3 10 1 10 -5 0 -6 5 -8 10 -5 6 3 10 1 10 -5 0 -6 5
-8 10 -5 6 3 10 1 10 -6 0 -7 3 -10 6 -6 4 3 21 -1 38 -10 17 -10 34 -16 39
-15 4 1 7 -3 7 -10 0 -6 3 -8 6 -5 4 3 16 1 28 -5 11 -7 24 -11 29 -10 4 1 7
-3 7 -10 0 -6 3 -8 6 -5 4 3 16 1 28 -5 11 -7 26 -13 31 -14 6 -1 24 -8 40
-15 17 -7 33 -13 38 -14 4 -2 9 -4 12 -5 3 -1 10 -4 15 -5 6 -1 12 -4 15 -5 3
-1 10 -4 15 -5 6 -1 12 -4 15 -5 3 -1 8 -3 13 -4 4 -1 36 -12 72 -24 36 -12
68 -22 72 -22 4 -1 27 -8 50 -16 24 -9 51 -17 61 -20 9 -2 26 -6 37 -9 11 -3
29 -7 40 -10 11 -3 29 -7 40 -10 30 -8 62 -15 90 -20 14 -3 34 -7 45 -10 83
-20 106 -24 150 -30 28 -3 59 -7 70 -9 11 -2 45 -7 75 -11 30 -4 66 -9 80 -11
109 -17 331 -26 565 -21 149 3 279 7 290 10 11 2 51 8 88 12 37 3 76 8 85 10
9 1 37 6 62 9 25 3 55 8 66 10 12 2 37 7 55 10 19 3 45 8 59 11 14 3 36 7 50
10 14 3 36 7 50 10 14 3 34 8 45 10 39 9 65 15 85 20 11 3 28 7 38 9 9 2 31 9
47 16 17 6 31 11 33 11 1 -1 3 -1 5 0 1 0 10 2 20 5 9 2 25 6 35 8 9 3 18 5
20 6 1 2 7 4 12 5 6 1 12 4 15 5 3 1 10 4 15 5 6 1 12 4 15 5 3 1 10 4 15 5 6
1 12 4 15 5 3 1 10 4 15 5 6 1 12 4 15 5 3 1 10 4 15 5 6 1 12 4 15 5 3 1 10
4 15 5 6 1 12 4 15 5 3 1 8 3 13 4 4 1 17 7 30 14 12 7 22 10 22 7 0 -3 12 3
27 12 15 10 27 17 28 15 1 -12 199 72 350 149 512 261 941 603 1301 1039 120
145 313 420 328 468 4 12 12 22 17 22 5 0 9 6 9 14 0 8 6 21 13 28 7 7 18 24
25 38 7 14 27 52 46 85 93 167 217 451 285 650 27 79 52 141 56 137 5 -4 5 -2
2 4 -9 15 3 75 13 69 5 -3 6 5 2 17 -3 13 -1 19 5 15 6 -4 8 4 5 20 -3 16 -1
24 5 20 6 -4 8 4 5 20 -3 16 -1 24 5 20 6 -4 8 4 5 20 -3 16 -1 24 5 20 6 -4
8 4 5 20 -3 16 -1 24 5 20 6 -4 8 4 5 20 -3 15 -1 24 5 20 5 -4 8 7 5 25 -3
18 -1 28 5 25 5 -4 8 7 5 25 -3 17 -1 28 5 25 5 -3 7 10 5 30 -3 20 -1 33 5
30 5 -3 7 10 5 30 -3 25 -1 34 7 29 7 -5 9 -1 5 9 -9 21 5 87 17 80 5 -4 9 0
9 8 0 18 41 11 217 -38 414 -116 871 -289 1260 -476 90 -42 163 -75 163 -73 0
8 -424 213 -545 264 -321 137 -727 281 -1025 364 -171 47 -176 48 -189 33z"/>
<path d="M19700 16176 c0 -2 8 -10 18 -17 15 -13 16 -12 3 4 -13 16 -21 21
-21 13z"/>
<path d="M19750 16136 c0 -2 8 -10 18 -17 15 -13 16 -12 3 4 -13 16 -21 21
-21 13z"/>
<path d="M19800 16096 c0 -2 8 -10 18 -17 15 -13 16 -12 3 4 -13 16 -21 21
-21 13z"/>
<path d="M19865 16040 c10 -11 20 -20 23 -20 3 0 -3 9 -13 20 -10 11 -20 20
-23 20 -3 0 3 -9 13 -20z"/>
<path d="M19925 15990 c10 -11 20 -20 23 -20 3 0 -3 9 -13 20 -10 11 -20 20
-23 20 -3 0 3 -9 13 -20z"/>
<path d="M20000 15925 c13 -14 26 -25 28 -25 3 0 -5 11 -18 25 -13 14 -26 25
-28 25 -3 0 5 -11 18 -25z"/>
<path d="M20085 15850 c10 -11 20 -20 23 -20 3 0 -3 9 -13 20 -10 11 -20 20
-23 20 -3 0 3 -9 13 -20z"/>
<path d="M20190 15755 c19 -19 36 -35 39 -35 3 0 -10 16 -29 35 -19 19 -36 35
-39 35 -3 0 10 -16 29 -35z"/>
<path d="M9440 15636 c0 -2 8 -10 18 -17 15 -13 16 -12 3 4 -13 16 -21 21 -21
13z"/>
<path d="M9480 15586 c0 -2 8 -10 18 -17 15 -13 16 -12 3 4 -13 16 -21 21 -21
13z"/>
<path d="M9535 15520 c10 -11 20 -20 23 -20 3 0 -3 9 -13 20 -10 11 -20 20
-23 20 -3 0 3 -9 13 -20z"/>
<path d="M9615 15430 c21 -22 41 -40 44 -40 3 0 -13 18 -34 40 -21 22 -41 40
-44 40 -3 0 13 -18 34 -40z"/>
<path d="M1751 15384 c0 -11 3 -14 6 -6 3 7 2 16 -1 19 -3 4 -6 -2 -5 -13z"/>
<path d="M20620 15328 c41 -45 50 -53 50 -45 0 2 -21 23 -47 47 l-48 45 45
-47z"/>
<path d="M1741 15274 c0 -11 3 -14 6 -6 3 7 2 16 -1 19 -3 4 -6 -2 -5 -13z"/>
<path d="M20725 15210 c10 -11 20 -20 23 -20 3 0 -3 9 -13 20 -10 11 -20 20
-23 20 -3 0 3 -9 13 -20z"/>
<path d="M1731 15174 c0 -11 3 -14 6 -6 3 7 2 16 -1 19 -3 4 -6 -2 -5 -13z"/>
<path d="M20795 15130 c10 -11 20 -20 23 -20 3 0 -3 9 -13 20 -10 11 -20 20
-23 20 -3 0 3 -9 13 -20z"/>
<path d="M1722 15060 c0 -14 2 -19 5 -12 2 6 2 18 0 25 -3 6 -5 1 -5 -13z"/>
<path d="M20840 15076 c0 -2 8 -10 18 -17 15 -13 16 -12 3 4 -13 16 -21 21
-21 13z"/>
<path d="M20890 15016 c0 -2 8 -10 18 -17 15 -13 16 -12 3 4 -13 16 -21 21
-21 13z"/>
<path d="M20940 14956 c0 -2 8 -10 18 -17 15 -13 16 -12 3 4 -13 16 -21 21
-21 13z"/>
<path d="M1712 14920 c0 -19 2 -27 5 -17 2 9 2 25 0 35 -3 9 -5 1 -5 -18z"/>
<path d="M20980 14906 c0 -2 8 -10 18 -17 15 -13 16 -12 3 4 -13 16 -21 21
-21 13z"/>
<path d="M21020 14856 c0 -2 8 -10 18 -17 15 -13 16 -12 3 4 -13 16 -21 21
-21 13z"/>
<path d="M1703 14735 c0 -27 2 -38 4 -22 2 15 2 37 0 50 -2 12 -4 0 -4 -28z"/>
<path d="M1694 14255 c0 -110 2 -156 3 -103 2 53 2 143 0 200 -1 57 -3 13 -3
-97z"/>
<path d="M361 14054 c0 -11 3 -14 6 -6 3 7 2 16 -1 19 -3 4 -6 -2 -5 -13z"/>
<path d="M351 13994 c0 -11 3 -14 6 -6 3 7 2 16 -1 19 -3 4 -6 -2 -5 -13z"/>
<path d="M341 13934 c0 -11 3 -14 6 -6 3 7 2 16 -1 19 -3 4 -6 -2 -5 -13z"/>
<path d="M7478 13893 c45 -2 119 -2 165 0 45 1 8 3 -83 3 -91 0 -128 -2 -82
-3z"/>
<path d="M7223 13883 c9 -2 23 -2 30 0 6 3 -1 5 -18 5 -16 0 -22 -2 -12 -5z"/>
<path d="M7858 13883 c6 -2 18 -2 25 0 6 3 1 5 -13 5 -14 0 -19 -2 -12 -5z"/>
<path d="M7118 13873 c6 -2 18 -2 25 0 6 3 1 5 -13 5 -14 0 -19 -2 -12 -5z"/>
<path d="M7968 13873 c7 -3 16 -2 19 1 4 3 -2 6 -13 5 -11 0 -14 -3 -6 -6z"/>
<path d="M7038 13863 c7 -3 16 -2 19 1 4 3 -2 6 -13 5 -11 0 -14 -3 -6 -6z"/>
<path d="M8058 13863 c7 -3 16 -2 19 1 4 3 -2 6 -13 5 -11 0 -14 -3 -6 -6z"/>
<path d="M8198 13843 c7 -3 16 -2 19 1 4 3 -2 6 -13 5 -11 0 -14 -3 -6 -6z"/>
<path d="M1703 13800 c0 -25 2 -35 4 -22 2 12 2 32 0 45 -2 12 -4 2 -4 -23z"/>
<path d="M301 13664 c0 -11 3 -14 6 -6 3 7 2 16 -1 19 -3 4 -6 -2 -5 -13z"/>
<path d="M17123 13643 c9 -2 25 -2 35 0 9 3 1 5 -18 5 -19 0 -27 -2 -17 -5z"/>
<path d="M17623 13643 c9 -2 25 -2 35 0 9 3 1 5 -18 5 -19 0 -27 -2 -17 -5z"/>
<path d="M1712 13610 c0 -19 2 -27 5 -17 2 9 2 25 0 35 -3 9 -5 1 -5 -18z"/>
<path d="M16998 13633 c7 -3 16 -2 19 1 4 3 -2 6 -13 5 -11 0 -14 -3 -6 -6z"/>
<path d="M17758 13633 c6 -2 18 -2 25 0 6 3 1 5 -13 5 -14 0 -19 -2 -12 -5z"/>
<path d="M16908 13623 c7 -3 16 -2 19 1 4 3 -2 6 -13 5 -11 0 -14 -3 -6 -6z"/>
<path d="M17928 13613 c7 -3 16 -2 19 1 4 3 -2 6 -13 5 -11 0 -14 -3 -6 -6z"/>
<path d="M17998 13603 c7 -3 16 -2 19 1 4 3 -2 6 -13 5 -11 0 -14 -3 -6 -6z"/>
<path d="M291 13584 c0 -11 3 -14 6 -6 3 7 2 16 -1 19 -3 4 -6 -2 -5 -13z"/>
<path d="M281 13504 c0 -11 3 -14 6 -6 3 7 2 16 -1 19 -3 4 -6 -2 -5 -13z"/>
<path d="M1722 13470 c0 -14 2 -19 5 -12 2 6 2 18 0 25 -3 6 -5 1 -5 -13z"/>
<path d="M271 13414 c0 -11 3 -14 6 -6 3 7 2 16 -1 19 -3 4 -6 -2 -5 -13z"/>
<path d="M1732 13360 c0 -14 2 -19 5 -12 2 6 2 18 0 25 -3 6 -5 1 -5 -13z"/>
<path d="M262 13320 c0 -14 2 -19 5 -12 2 6 2 18 0 25 -3 6 -5 1 -5 -13z"/>
<path d="M1742 13260 c0 -14 2 -19 5 -12 2 6 2 18 0 25 -3 6 -5 1 -5 -13z"/>
<path d="M252 13220 c0 -14 2 -19 5 -12 2 6 2 18 0 25 -3 6 -5 1 -5 -13z"/>
<path d="M1751 13154 c0 -11 3 -14 6 -6 3 7 2 16 -1 19 -3 4 -6 -2 -5 -13z"/>
<path d="M242 13110 c0 -14 2 -19 5 -12 2 6 2 18 0 25 -3 6 -5 1 -5 -13z"/>
<path d="M1761 13074 c0 -11 3 -14 6 -6 3 7 2 16 -1 19 -3 4 -6 -2 -5 -13z"/>
<path d="M232 12980 c0 -19 2 -27 5 -17 2 9 2 25 0 35 -3 9 -5 1 -5 -18z"/>
<path d="M1771 12994 c0 -11 3 -14 6 -6 3 7 2 16 -1 19 -3 4 -6 -2 -5 -13z"/>
<path d="M19672 12965 c4 -4 53 -40 110 -81 351 -251 772 -683 1008 -1034 313
-467 543 -1042 635 -1585 44 -262 57 -422 57 -715 1 -374 -32 -655 -117 -995
-39 -159 -164 -533 -337 -1010 -636 -1759 -1748 -3313 -3204 -4479 -557 -446
-1120 -807 -1769 -1136 -461 -234 -875 -407 -1350 -565 -861 -287 -1605 -438
-2520 -511 -268 -21 -925 -29 -1224 -15 -1268 61 -2438 331 -3596 831 -374
161 -1162 559 -1553 784 -879 505 -1575 1032 -2271 1721 -415 411 -613 634
-963 1087 -186 240 -286 377 -440 603 -543 796 -1030 1771 -1326 2655 -47 140
-89 256 -93 258 -4 2 -5 11 -2 20 4 14 3 14 -5 3 -7 -10 -6 -21 3 -35 18 -30
58 -156 51 -163 -3 -3 -1 -12 5 -20 6 -7 8 -13 4 -13 -4 0 -2 -7 5 -15 7 -8 9
-15 5 -15 -4 0 -2 -7 5 -15 7 -8 9 -15 5 -15 -4 0 -2 -7 5 -15 7 -8 9 -15 5
-15 -4 0 -2 -7 5 -15 7 -8 9 -15 5 -15 -4 0 -2 -7 5 -15 7 -8 9 -15 5 -15 -4
0 -2 -7 5 -15 7 -8 9 -15 5 -15 -5 0 -1 -8 7 -17 8 -10 34 -74 58 -143 59
-171 234 -607 333 -825 153 -340 408 -827 599 -1142 37 -62 64 -113 60 -113
-4 0 -2 -4 3 -8 17 -11 57 -72 49 -72 -4 0 1 -7 12 -15 10 -8 15 -15 11 -15
-4 0 1 -10 12 -22 11 -11 18 -24 16 -28 -3 -5 2 -11 11 -14 8 -3 13 -10 10
-15 -3 -5 1 -12 10 -15 8 -3 12 -10 9 -16 -3 -5 -2 -10 3 -10 5 0 15 -12 23
-27 8 -16 21 -34 29 -41 13 -12 13 -13 0 -7 -10 4 -9 2 2 -8 10 -8 15 -17 11
-20 -3 -4 2 -9 11 -13 9 -3 16 -12 16 -20 0 -8 5 -14 11 -14 5 0 8 -4 4 -9 -3
-6 3 -14 12 -20 10 -6 14 -11 9 -11 -4 0 2 -9 15 -21 13 -11 17 -18 9 -14 -8
4 -4 -3 9 -14 13 -12 19 -21 15 -21 -5 0 0 -7 10 -15 11 -8 16 -15 10 -15 -5
0 0 -7 10 -15 11 -8 16 -15 12 -15 -30 0 484 -663 753 -970 219 -250 628 -673
642 -664 4 2 47 -38 94 -90 48 -52 96 -97 107 -99 13 -4 17 -10 12 -18 -4 -7
-3 -10 4 -5 6 3 27 -14 47 -39 21 -25 42 -45 49 -45 6 0 24 -13 41 -30 52 -52
96 -90 103 -90 4 0 20 -13 37 -30 76 -75 94 -90 104 -90 6 0 18 -11 27 -25 9
-14 22 -25 30 -25 7 0 16 -5 20 -12 5 -7 2 -9 -7 -4 -8 4 -3 -2 11 -13 14 -11
30 -21 37 -21 7 0 17 -9 23 -20 6 -11 18 -20 26 -20 8 0 13 -4 10 -9 -3 -5 9
-16 27 -25 17 -8 28 -16 23 -16 -4 0 13 -18 40 -40 26 -21 52 -36 57 -33 6 3
7 1 3 -5 -8 -13 28 -35 39 -24 5 4 5 2 1 -5 -8 -14 27 -36 39 -25 5 4 5 2 1
-5 -7 -13 31 -40 49 -34 6 1 7 -1 3 -5 -4 -4 16 -24 45 -45 28 -21 57 -43 64
-49 93 -79 823 -562 823 -544 0 2 10 -4 22 -15 11 -11 25 -18 30 -15 4 3 8 1
8 -5 0 -6 11 -13 25 -17 14 -3 25 -10 25 -16 0 -5 5 -6 10 -3 6 3 10 1 10 -4
0 -6 7 -11 15 -11 8 0 15 -5 15 -11 0 -5 4 -7 10 -4 5 3 10 1 10 -5 0 -6 5 -8
10 -5 6 3 13 -1 16 -9 3 -9 10 -13 15 -10 5 3 9 0 9 -6 0 -6 5 -8 10 -5 6 3
10 1 10 -5 0 -6 5 -8 10 -5 6 3 13 -1 16 -9 3 -9 10 -13 15 -10 5 3 9 0 9 -6
0 -6 4 -9 8 -6 5 3 18 -3 29 -14 12 -10 24 -16 27 -13 3 4 6 1 6 -6 0 -7 5 -9
10 -6 6 3 10 1 10 -4 0 -6 3 -10 8 -9 12 3 62 -25 62 -34 0 -5 5 -6 10 -3 6 3
10 1 10 -4 0 -6 3 -10 8 -9 10 3 196 -93 200 -103 2 -5 8 -7 13 -3 5 3 9 0 9
-6 0 -6 5 -8 10 -5 6 3 10 1 10 -4 0 -6 3 -10 8 -9 4 1 201 -95 437 -213 237
-118 498 -243 580 -278 703 -299 1348 -500 2082 -650 101 -21 181 -40 178 -43
-3 -2 9 -2 26 0 18 3 29 1 26 -5 -3 -5 10 -7 30 -5 20 3 33 1 30 -5 -3 -5 10
-7 30 -5 22 3 33 1 30 -5 -4 -6 3 -9 16 -6 32 5 345 -42 327 -50 -8 -4 -5 -4
8 -1 30 7 157 -7 143 -16 -7 -4 14 -5 45 -2 32 3 54 1 51 -4 -3 -5 22 -8 56
-6 36 2 57 -1 50 -6 -7 -4 16 -6 55 -4 39 2 62 0 55 -5 -8 -5 17 -8 60 -6 39
2 67 0 60 -5 -6 -4 27 -6 75 -5 48 1 79 -1 70 -5 -10 -4 42 -6 115 -6 72 1
119 -1 102 -5 -16 -3 170 -7 415 -7 245 0 429 3 410 7 -19 4 26 6 100 5 74 -1
124 1 110 5 -14 4 17 7 70 5 56 -2 86 1 75 6 -13 5 9 7 57 5 42 -1 71 1 65 6
-7 5 18 7 55 5 37 -2 63 -1 57 3 -15 9 161 22 186 14 14 -5 16 -4 7 2 -16 12
210 39 229 28 8 -6 10 -4 4 5 -6 9 2 11 33 8 22 -2 38 1 35 5 -3 5 13 8 35 5
22 -2 39 -1 37 2 -2 4 46 14 108 24 335 52 814 159 1153 256 189 55 668 211
779 254 232 91 304 120 340 136 22 10 105 46 185 80 80 34 166 73 193 86 26
14 47 21 47 17 0 -5 4 -3 8 2 9 12 404 210 415 207 4 -1 7 3 7 9 0 5 5 7 10 4
6 -3 10 -1 10 5 0 6 5 8 10 5 6 -3 10 -1 10 5 0 6 5 8 10 5 6 -3 10 -2 10 2 0
10 90 58 103 55 4 -1 7 3 7 10 0 6 3 9 6 5 3 -3 15 3 27 13 11 11 24 17 29 14
4 -3 8 0 8 7 0 7 3 10 6 6 3 -3 15 3 27 13 11 11 24 17 29 14 4 -3 8 0 8 7 0
7 3 10 6 6 3 -3 15 3 27 13 11 11 24 17 29 14 4 -3 8 0 8 6 0 6 4 9 9 6 5 -3
12 1 15 10 3 8 10 12 16 9 5 -3 10 -1 10 5 0 6 5 8 10 5 6 -3 13 1 16 9 3 9
10 13 15 10 5 -3 9 0 9 6 0 6 5 8 10 5 6 -3 13 1 16 9 3 9 10 13 15 10 5 -3 9
0 9 6 0 6 5 8 10 5 6 -3 13 0 16 8 2 7 10 14 17 14 23 0 398 245 636 416 244
175 638 492 633 508 -1 5 1 8 5 7 14 -5 83 54 76 65 -3 5 -2 7 3 4 6 -3 26 9
45 26 20 18 55 50 80 72 24 22 43 43 41 48 -1 5 1 6 5 4 5 -3 28 13 53 36 25
22 38 36 29 31 -8 -5 -6 -2 5 6 19 14 477 471 567 566 22 22 39 46 39 52 0 6
5 14 12 18 7 5 8 2 3 -7 -4 -8 10 6 31 31 21 24 39 47 39 51 0 4 4 11 9 16 5
5 6 3 2 -5 -16 -27 3 -8 59 60 33 39 59 75 57 80 -1 4 2 7 7 6 11 -3 97 97
223 257 43 55 84 107 92 115 105 117 617 867 628 921 2 7 11 21 21 31 10 10
15 23 12 27 -2 5 2 12 11 15 8 3 13 10 10 15 -3 5 1 12 10 15 8 3 12 10 9 16
-3 5 -1 10 5 10 6 0 9 4 6 9 -3 5 1 12 10 15 8 3 12 10 9 16 -3 5 -1 10 5 10
6 0 8 5 5 10 -3 6 -1 10 4 10 6 0 11 7 11 15 0 8 5 15 11 15 5 0 7 5 4 10 -3
6 -1 10 5 10 6 0 9 4 6 8 -3 5 3 18 14 29 10 12 16 24 13 27 -4 3 -1 6 6 6 7
0 9 5 6 10 -3 6 -1 10 4 10 6 0 10 3 9 8 -3 12 25 62 34 62 5 0 6 4 3 10 -3 6
-1 10 5 10 6 0 8 4 5 10 -3 6 -1 10 4 10 6 0 10 3 9 8 -3 10 72 156 84 163 5
3 9 9 9 13 -1 3 14 36 33 74 33 66 159 332 231 487 45 98 176 418 220 540 18
49 45 122 59 160 88 238 290 855 320 976 42 171 78 378 102 584 18 161 27 768
11 758 -5 -3 -7 19 -5 50 1 30 1 54 -2 52 -9 -6 -32 213 -24 226 5 8 3 9 -6 4
-9 -6 -12 1 -8 28 2 20 1 34 -3 31 -3 -2 -9 19 -13 46 -21 155 -132 536 -225
770 -43 107 -206 453 -226 480 -7 8 -22 35 -34 59 -47 93 -179 293 -292 441
-202 268 -486 555 -744 755 -129 100 -389 280 -363 250z m-16167 -8845 c82
-82 147 -150 145 -150 -3 0 -73 68 -155 150 -82 83 -147 150 -145 150 3 0 73
-67 155 -150z"/>
<path d="M223 12835 c0 -22 2 -30 4 -17 2 12 2 30 0 40 -3 9 -5 -1 -4 -23z"/>
<path d="M10340 12806 c0 -2 8 -10 18 -17 15 -13 16 -12 3 4 -13 16 -21 21
-21 13z"/>
<path d="M213 12625 c0 -33 2 -45 4 -27 2 18 2 45 0 60 -2 15 -4 0 -4 -33z"/>
<path d="M10710 12421 c0 -5 5 -13 10 -16 6 -3 10 -2 10 4 0 5 -4 13 -10 16
-5 3 -10 2 -10 -4z"/>
<path d="M10747 12380 c6 -8 41 -55 80 -105 264 -341 476 -742 619 -1171 228
-685 273 -1426 129 -2134 -77 -376 -210 -747 -391 -1085 -208 -387 -421 -674
-728 -981 -329 -328 -640 -553 -1046 -758 -457 -231 -851 -349 -1410 -423
-209 -28 -717 -25 -935 6 -685 95 -1248 304 -1790 664 -225 150 -390 286 -633
519 -92 90 -205 197 -251 237 -113 101 -430 469 -626 726 -123 162 -385 557
-540 815 -115 191 -390 717 -465 888 -21 48 -59 134 -85 192 -99 223 -210 503
-271 680 -34 102 -63 180 -63 174 -2 -27 144 -448 219 -629 205 -500 505
-1102 692 -1394 9 -14 23 -36 30 -48 174 -296 579 -887 710 -1034 13 -15 41
-48 63 -75 22 -26 54 -64 71 -84 18 -19 81 -93 142 -165 60 -71 133 -150 163
-175 59 -48 158 -141 344 -320 418 -401 977 -736 1528 -915 87 -28 154 -55
150 -60 -4 -4 -2 -5 5 -1 16 10 74 -3 67 -15 -4 -5 0 -6 8 -3 8 3 50 -4 93
-16 92 -24 122 -31 147 -31 9 0 15 -4 12 -9 -3 -6 0 -7 8 -4 8 3 18 1 22 -5 3
-6 12 -11 18 -11 7 0 6 4 -3 10 -8 5 -10 10 -4 10 5 0 19 -6 29 -14 12 -9 32
-12 54 -8 20 3 32 1 28 -4 -3 -5 13 -8 36 -6 32 2 38 1 27 -7 -11 -8 -7 -10
16 -5 17 3 34 2 38 -4 3 -5 29 -8 58 -6 33 3 48 1 39 -5 -8 -5 8 -7 40 -5 30
2 49 1 42 -4 -6 -4 32 -7 85 -6 54 1 84 -2 67 -5 -16 -3 91 -6 238 -6 146 0
259 3 249 6 -9 4 18 6 60 5 43 -1 72 2 65 6 -7 4 14 6 46 5 33 -2 52 0 45 5
-8 4 9 6 40 4 29 -2 55 1 58 6 4 6 17 8 30 5 13 -2 21 -1 18 4 -2 4 13 7 35 6
22 -1 37 1 35 5 -3 4 11 6 30 4 20 -1 32 2 29 7 -3 6 7 8 25 5 17 -2 29 -1 27
2 -6 10 84 22 98 13 6 -3 7 -1 3 5 -5 8 1 12 16 13 62 4 74 6 93 16 11 5 30 9
42 8 12 -1 20 2 18 5 -6 10 54 22 68 13 5 -3 7 -2 4 4 -7 11 80 36 95 27 7 -5
8 -2 3 6 -6 10 -3 12 14 7 13 -3 20 -3 17 1 -9 8 105 42 117 35 6 -3 7 -1 3 5
-4 7 -2 12 5 12 30 0 310 120 479 206 229 115 510 291 649 404 10 8 33 26 51
40 181 137 517 472 659 658 20 25 44 56 54 67 28 31 218 319 276 419 271 463
470 1053 527 1563 3 35 9 61 13 59 8 -5 9 43 13 471 2 193 -1 346 -5 340 -4
-7 -7 16 -5 50 2 33 -1 59 -6 56 -4 -3 -7 15 -5 40 2 25 0 43 -5 40 -4 -3 -7
13 -4 35 2 22 0 38 -3 36 -10 -6 -22 113 -13 127 4 7 3 9 -3 6 -7 -4 -13 11
-18 40 -12 80 -82 352 -126 488 -37 117 -83 238 -167 440 -97 234 -290 558
-487 820 -74 98 -163 205 -138 165z"/>
<path d="M203 12190 c0 -47 2 -66 4 -42 2 23 2 61 0 85 -2 23 -4 4 -4 -43z"/>
<path d="M1072 12060 c0 -19 5 -78 12 -130 8 -52 14 -79 14 -60 0 19 -5 78
-12 130 -8 52 -14 79 -14 60z"/>
<path d="M1103 11795 c0 -22 2 -30 4 -17 2 12 2 30 0 40 -3 9 -5 -1 -4 -23z"/>
<path d="M1112 11720 c0 -19 2 -27 5 -17 2 9 2 25 0 35 -3 9 -5 1 -5 -18z"/>
<path d="M213 11685 c0 -33 2 -45 4 -27 2 18 2 45 0 60 -2 15 -4 0 -4 -33z"/>
<path d="M1122 11645 c0 -16 2 -22 5 -12 2 9 2 23 0 30 -3 6 -5 -1 -5 -18z"/>
<path d="M1132 11575 c0 -16 2 -22 5 -12 2 9 2 23 0 30 -3 6 -5 -1 -5 -18z"/>
<path d="M1142 11505 c0 -16 2 -22 5 -12 2 9 2 23 0 30 -3 6 -5 -1 -5 -18z"/>
<path d="M223 11485 c0 -22 2 -30 4 -17 2 12 2 30 0 40 -3 9 -5 -1 -4 -23z"/>
<path d="M1152 11435 c0 -16 2 -22 5 -12 2 9 2 23 0 30 -3 6 -5 -1 -5 -18z"/>
<path d="M1161 11354 c0 -11 3 -14 6 -6 3 7 2 16 -1 19 -3 4 -6 -2 -5 -13z"/>
<path d="M232 11335 c0 -16 2 -22 5 -12 2 9 2 23 0 30 -3 6 -5 -1 -5 -18z"/>
<path d="M1172 11300 c0 -14 2 -19 5 -12 2 6 2 18 0 25 -3 6 -5 1 -5 -13z"/>
<path d="M1181 11234 c0 -11 3 -14 6 -6 3 7 2 16 -1 19 -3 4 -6 -2 -5 -13z"/>
<path d="M242 11210 c0 -14 2 -19 5 -12 2 6 2 18 0 25 -3 6 -5 1 -5 -13z"/>
<path d="M1191 11174 c0 -11 3 -14 6 -6 3 7 2 16 -1 19 -3 4 -6 -2 -5 -13z"/>
<path d="M252 11110 c0 -14 2 -19 5 -12 2 6 2 18 0 25 -3 6 -5 1 -5 -13z"/>
<path d="M1202 11110 c0 -14 2 -19 5 -12 2 6 2 18 0 25 -3 6 -5 1 -5 -13z"/>
<path d="M1212 11050 c0 -14 2 -19 5 -12 2 6 2 18 0 25 -3 6 -5 1 -5 -13z"/>
<path d="M262 11000 c0 -14 2 -19 5 -12 2 6 2 18 0 25 -3 6 -5 1 -5 -13z"/>
<path d="M1222 10980 c0 -14 2 -19 5 -12 2 6 2 18 0 25 -3 6 -5 1 -5 -13z"/>
<path d="M1232 10915 c0 -16 2 -22 5 -12 2 9 2 23 0 30 -3 6 -5 -1 -5 -18z"/>
<path d="M271 10904 c0 -11 3 -14 6 -6 3 7 2 16 -1 19 -3 4 -6 -2 -5 -13z"/>
<path d="M1242 10850 c0 -14 2 -19 5 -12 2 6 2 18 0 25 -3 6 -5 1 -5 -13z"/>
<path d="M281 10814 c0 -11 3 -14 6 -6 3 7 2 16 -1 19 -3 4 -6 -2 -5 -13z"/>
<path d="M1252 10780 c0 -14 2 -19 5 -12 2 6 2 18 0 25 -3 6 -5 1 -5 -13z"/>
<path d="M291 10734 c0 -11 3 -14 6 -6 3 7 2 16 -1 19 -3 4 -6 -2 -5 -13z"/>
<path d="M1262 10710 c0 -14 2 -19 5 -12 2 6 2 18 0 25 -3 6 -5 1 -5 -13z"/>
<path d="M301 10664 c0 -11 3 -14 6 -6 3 7 2 16 -1 19 -3 4 -6 -2 -5 -13z"/>
<path d="M1272 10650 c0 -14 2 -19 5 -12 2 6 2 18 0 25 -3 6 -5 1 -5 -13z"/>
<path d="M311 10584 c0 -11 3 -14 6 -6 3 7 2 16 -1 19 -3 4 -6 -2 -5 -13z"/>
<path d="M1281 10584 c0 -11 3 -14 6 -6 3 7 2 16 -1 19 -3 4 -6 -2 -5 -13z"/>
<path d="M1291 10524 c0 -11 3 -14 6 -6 3 7 2 16 -1 19 -3 4 -6 -2 -5 -13z"/>
<path d="M321 10514 c0 -11 3 -14 6 -6 3 7 2 16 -1 19 -3 4 -6 -2 -5 -13z"/>
<path d="M1301 10464 c0 -11 3 -14 6 -6 3 7 2 16 -1 19 -3 4 -6 -2 -5 -13z"/>
<path d="M331 10444 c0 -11 3 -14 6 -6 3 7 2 16 -1 19 -3 4 -6 -2 -5 -13z"/>
<path d="M341 10384 c0 -11 3 -14 6 -6 3 7 2 16 -1 19 -3 4 -6 -2 -5 -13z"/>
<path d="M351 10324 c0 -11 3 -14 6 -6 3 7 2 16 -1 19 -3 4 -6 -2 -5 -13z"/>
<path d="M361 10264 c0 -11 3 -14 6 -6 3 7 2 16 -1 19 -3 4 -6 -2 -5 -13z"/>
<path d="M371 10204 c0 -11 3 -14 6 -6 3 7 2 16 -1 19 -3 4 -6 -2 -5 -13z"/>
<path d="M391 10084 c0 -11 3 -14 6 -6 3 7 2 16 -1 19 -3 4 -6 -2 -5 -13z"/>
<path d="M401 10034 c0 -11 3 -14 6 -6 3 7 2 16 -1 19 -3 4 -6 -2 -5 -13z"/>
<path d="M13301 9994 c0 -11 3 -14 6 -6 3 7 2 16 -1 19 -3 4 -6 -2 -5 -13z"/>
<path d="M411 9984 c0 -11 3 -14 6 -6 3 7 2 16 -1 19 -3 4 -6 -2 -5 -13z"/>
<path d="M1411 9954 c0 -11 3 -14 6 -6 3 7 2 16 -1 19 -3 4 -6 -2 -5 -13z"/>
<path d="M421 9934 c0 -11 3 -14 6 -6 3 7 2 16 -1 19 -3 4 -6 -2 -5 -13z"/>
<path d="M1421 9914 c0 -11 3 -14 6 -6 3 7 2 16 -1 19 -3 4 -6 -2 -5 -13z"/>
<path d="M13291 9894 c0 -11 3 -14 6 -6 3 7 2 16 -1 19 -3 4 -6 -2 -5 -13z"/>
<path d="M431 9884 c0 -11 3 -14 6 -6 3 7 2 16 -1 19 -3 4 -6 -2 -5 -13z"/>
<path d="M11742 9875 c0 -16 2 -22 5 -12 2 9 2 23 0 30 -3 6 -5 -1 -5 -18z"/>
<path d="M1431 9874 c0 -11 3 -14 6 -6 3 7 2 16 -1 19 -3 4 -6 -2 -5 -13z"/>
<path d="M441 9834 c0 -11 3 -14 6 -6 3 7 2 16 -1 19 -3 4 -6 -2 -5 -13z"/>
<path d="M451 9784 c0 -11 3 -14 6 -6 3 7 2 16 -1 19 -3 4 -6 -2 -5 -13z"/>
<path d="M461 9734 c0 -11 3 -14 6 -6 3 7 2 16 -1 19 -3 4 -6 -2 -5 -13z"/>
<path d="M13283 9690 c0 -25 2 -35 4 -22 2 12 2 32 0 45 -2 12 -4 2 -4 -23z"/>
<path d="M472 9690 c0 -14 2 -19 5 -12 2 6 2 18 0 25 -3 6 -5 1 -5 -13z"/>
<path d="M481 9644 c0 -11 3 -14 6 -6 3 7 2 16 -1 19 -3 4 -6 -2 -5 -13z"/>
<path d="M492 9600 c0 -14 2 -19 5 -12 2 6 2 18 0 25 -3 6 -5 1 -5 -13z"/>
<path d="M21632 9570 c0 -14 2 -19 5 -12 2 6 2 18 0 25 -3 6 -5 1 -5 -13z"/>
<path d="M501 9554 c0 -11 3 -14 6 -6 3 7 2 16 -1 19 -3 4 -6 -2 -5 -13z"/>
<path d="M511 9520 c-1 -20 55 -240 63 -247 3 -4 6 -2 6 3 -1 18 -69 258 -69
244z"/>
<path d="M11742 9475 c0 -16 2 -22 5 -12 2 9 2 23 0 30 -3 6 -5 -1 -5 -18z"/>
<path d="M13283 9380 c0 -25 2 -35 4 -22 2 12 2 32 0 45 -2 12 -4 2 -4 -23z"/>
<path d="M21631 9284 c0 -11 3 -14 6 -6 3 7 2 16 -1 19 -3 4 -6 -2 -5 -13z"/>
<path d="M576 9245 c4 -8 8 -15 10 -15 2 0 4 7 4 15 0 8 -4 15 -10 15 -5 0 -7
-7 -4 -15z"/>
<path d="M13291 9214 c0 -11 3 -14 6 -6 3 7 2 16 -1 19 -3 4 -6 -2 -5 -13z"/>
<path d="M591 9183 c15 -56 19 -66 25 -61 7 7 -18 98 -27 98 -4 0 -3 -17 2
-37z"/>
<path d="M610 9102 c0 -4 4 -12 9 -17 6 -6 12 -21 14 -35 6 -33 28 -92 33 -87
3 2 -1 17 -7 33 -7 16 -13 34 -13 39 -5 34 -19 75 -27 75 -5 0 -9 -4 -9 -8z"/>
<path d="M664 8938 c2 -7 8 -24 14 -38 7 -17 11 -20 11 -8 1 9 -4 20 -9 23 -6
4 -8 10 -5 15 3 5 1 11 -4 14 -5 4 -8 0 -7 -6z"/>
<path d="M686 8862 c-2 -4 2 -16 10 -27 8 -10 14 -14 14 -8 0 7 -5 15 -10 18
-6 4 -8 11 -5 16 4 5 4 9 1 9 -3 0 -7 -3 -10 -8z"/>
<path d="M14225 6930 c10 -11 20 -20 23 -20 3 0 -3 9 -13 20 -10 11 -20 20
-23 20 -3 0 3 -9 13 -20z"/>
<path d="M14276 6868 c15 -20 30 -35 33 -32 3 2 -10 19 -28 37 l-34 32 29 -37z"/>
<path d="M14378 6755 c101 -116 211 -228 327 -336 61 -56 109 -106 107 -111
-1 -5 2 -7 8 -3 22 14 7 36 -67 102 -43 37 -159 147 -257 243 -99 96 -152 144
-118 105z"/>
<path d="M3150 6626 c0 -2 8 -10 18 -17 15 -13 16 -12 3 4 -13 16 -21 21 -21
13z"/>
<path d="M3250 6515 c13 -14 26 -25 28 -25 3 0 -5 11 -18 25 -13 14 -26 25
-28 25 -3 0 5 -11 18 -25z"/>
<path d="M3510 6248 c57 -60 106 -108 107 -108 8 0 -5 13 -104 110 l-108 105
105 -107z"/>
<path d="M14710 6193 l-95 -98 98 95 c90 88 102 100 94 100 -1 0 -45 -44 -97
-97z"/>
<path d="M3750 6015 c13 -14 26 -25 28 -25 3 0 -5 11 -18 25 -13 14 -26 25
-28 25 -3 0 5 -11 18 -25z"/>
<path d="M14499 5993 l-24 -28 28 24 c15 14 27 26 27 28 0 8 -8 1 -31 -24z"/>
<path d="M3845 5930 c10 -11 20 -20 23 -20 3 0 -3 9 -13 20 -10 11 -20 20 -23
20 -3 0 3 -9 13 -20z"/>
<path d="M14409 5913 c-13 -16 -12 -17 4 -4 9 7 17 15 17 17 0 8 -8 3 -21 -13z"/>
<path d="M3915 5870 c10 -11 20 -20 23 -20 3 0 -3 9 -13 20 -10 11 -20 20 -23
20 -3 0 3 -9 13 -20z"/>
<path d="M14344 5858 l-19 -23 23 19 c21 18 27 26 19 26 -2 0 -12 -10 -23 -22z"/>
<path d="M3985 5810 c10 -11 20 -20 23 -20 3 0 -3 9 -13 20 -10 11 -20 20 -23
20 -3 0 3 -9 13 -20z"/>
<path d="M14279 5803 c-13 -16 -12 -17 4 -4 9 7 17 15 17 17 0 8 -8 3 -21 -13z"/>
<path d="M4040 5766 c0 -2 8 -10 18 -17 15 -13 16 -12 3 4 -13 16 -21 21 -21
13z"/>
<path d="M14219 5753 c-13 -16 -12 -17 4 -4 9 7 17 15 17 17 0 8 -8 3 -21 -13z"/>
<path d="M14159 5703 c-13 -16 -12 -17 4 -4 9 7 17 15 17 17 0 8 -8 3 -21 -13z"/>
<path d="M14109 5663 c-13 -16 -12 -17 4 -4 9 7 17 15 17 17 0 8 -8 3 -21 -13z"/>
<path d="M14059 5623 c-13 -16 -12 -17 4 -4 9 7 17 15 17 17 0 8 -8 3 -21 -13z"/>
<path d="M21039 4973 c-13 -16 -12 -17 4 -4 16 13 21 21 13 21 -2 0 -10 -8
-17 -17z"/>
<path d="M20999 4923 c-13 -16 -12 -17 4 -4 16 13 21 21 13 21 -2 0 -10 -8
-17 -17z"/>
<path d="M20959 4873 c-13 -16 -12 -17 4 -4 9 7 17 15 17 17 0 8 -8 3 -21 -13z"/>
<path d="M20889 4783 c-13 -16 -12 -17 4 -4 16 13 21 21 13 21 -2 0 -10 -8
-17 -17z"/>
<path d="M20849 4733 c-13 -16 -12 -17 4 -4 16 13 21 21 13 21 -2 0 -10 -8
-17 -17z"/>
<path d="M20789 4663 l-24 -28 28 24 c15 14 27 26 27 28 0 8 -8 1 -31 -24z"/>
<path d="M20694 4558 l-29 -33 33 29 c30 28 37 36 29 36 -2 0 -16 -15 -33 -32z"/>
<path d="M20395 4250 c-115 -115 -208 -210 -205 -210 3 0 100 95 215 210 115
116 208 210 205 210 -3 0 -100 -94 -215 -210z"/>
<path d="M7878 4023 c7 -3 16 -2 19 1 4 3 -2 6 -13 5 -11 0 -14 -3 -6 -6z"/>
<path d="M8018 4003 c7 -3 16 -2 19 1 4 3 -2 6 -13 5 -11 0 -14 -3 -6 -6z"/>
<path d="M10258 4003 c7 -3 16 -2 19 1 4 3 -2 6 -13 5 -11 0 -14 -3 -6 -6z"/>
<path d="M8088 3993 c7 -3 16 -2 19 1 4 3 -2 6 -13 5 -11 0 -14 -3 -6 -6z"/>
<path d="M10188 3993 c7 -3 16 -2 19 1 4 3 -2 6 -13 5 -11 0 -14 -3 -6 -6z"/>
<path d="M8168 3983 c7 -3 16 -2 19 1 4 3 -2 6 -13 5 -11 0 -14 -3 -6 -6z"/>
<path d="M10098 3983 c7 -3 16 -2 19 1 4 3 -2 6 -13 5 -11 0 -14 -3 -6 -6z"/>
<path d="M8258 3973 c7 -3 16 -2 19 1 4 3 -2 6 -13 5 -11 0 -14 -3 -6 -6z"/>
<path d="M10008 3973 c7 -3 16 -2 19 1 4 3 -2 6 -13 5 -11 0 -14 -3 -6 -6z"/>
<path d="M8348 3963 c7 -3 16 -2 19 1 4 3 -2 6 -13 5 -11 0 -14 -3 -6 -6z"/>
<path d="M9918 3963 c7 -3 16 -2 19 1 4 3 -2 6 -13 5 -11 0 -14 -3 -6 -6z"/>
<path d="M20065 3928 l-40 -43 43 40 c23 21 42 40 42 42 0 8 -9 0 -45 -39z"/>
<path d="M8453 3953 c9 -2 23 -2 30 0 6 3 -1 5 -18 5 -16 0 -22 -2 -12 -5z"/>
<path d="M9803 3953 c9 -2 23 -2 30 0 6 3 -1 5 -18 5 -16 0 -22 -2 -12 -5z"/>
<path d="M8593 3943 c9 -2 25 -2 35 0 9 3 1 5 -18 5 -19 0 -27 -2 -17 -5z"/>
<path d="M9673 3943 c9 -2 25 -2 35 0 9 3 1 5 -18 5 -19 0 -27 -2 -17 -5z"/>
<path d="M8763 3933 c15 -2 39 -2 55 0 15 2 2 4 -28 4 -30 0 -43 -2 -27 -4z"/>
<path d="M9478 3933 c18 -2 45 -2 60 0 15 2 0 4 -33 4 -33 0 -45 -2 -27 -4z"/>
<path d="M19944 3818 l-19 -23 23 19 c21 18 27 26 19 26 -2 0 -12 -10 -23 -22z"/>
<path d="M19849 3733 l-24 -28 28 24 c15 14 27 26 27 28 0 8 -8 1 -31 -24z"/>
<path d="M19769 3663 c-13 -16 -12 -17 4 -4 16 13 21 21 13 21 -2 0 -10 -8
-17 -17z"/>
<path d="M19684 3588 l-19 -23 23 19 c21 18 27 26 19 26 -2 0 -12 -10 -23 -22z"/>
<path d="M4110 3536 c0 -2 8 -10 18 -17 15 -13 16 -12 3 4 -13 16 -21 21 -21
13z"/>
<path d="M19604 3518 l-19 -23 23 19 c21 18 27 26 19 26 -2 0 -12 -10 -23 -22z"/>
<path d="M19469 3403 c-13 -16 -12 -17 4 -4 16 13 21 21 13 21 -2 0 -10 -8
-17 -17z"/>
<path d="M19399 3343 c-13 -16 -12 -17 4 -4 16 13 21 21 13 21 -2 0 -10 -8
-17 -17z"/>
<path d="M19279 3243 c-13 -16 -12 -17 4 -4 16 13 21 21 13 21 -2 0 -10 -8
-17 -17z"/>
<path d="M13058 403 c7 -3 16 -2 19 1 4 3 -2 6 -13 5 -11 0 -14 -3 -6 -6z"/>
<path d="M12998 393 c7 -3 16 -2 19 1 4 3 -2 6 -13 5 -11 0 -14 -3 -6 -6z"/>
<path d="M12878 373 c7 -3 16 -2 19 1 4 3 -2 6 -13 5 -11 0 -14 -3 -6 -6z"/>
<path d="M12808 363 c7 -3 16 -2 19 1 4 3 -2 6 -13 5 -11 0 -14 -3 -6 -6z"/>
<path d="M12628 333 c7 -3 16 -2 19 1 4 3 -2 6 -13 5 -11 0 -14 -3 -6 -6z"/>
<path d="M12538 323 c7 -3 16 -2 19 1 4 3 -2 6 -13 5 -11 0 -14 -3 -6 -6z"/>
<path d="M12458 313 c6 -2 18 -2 25 0 6 3 1 5 -13 5 -14 0 -19 -2 -12 -5z"/>
<path d="M12366 299 c3 -5 33 -9 66 -9 34 0 59 2 57 4 -10 8 -129 13 -123 5z"/>
<path d="M12683 283 c15 -2 37 -2 50 0 12 2 0 4 -28 4 -27 0 -38 -2 -22 -4z"/>
</g>
</svg>
